<?xml version="1.0" encoding="utf-8"?>
<!-- Generator: Adobe Illustrator 21.0.2, SVG Export Plug-In . SVG Version: 6.00 Build 0)  -->
<svg version="1.1" id="Layer_1" xmlns="http://www.w3.org/2000/svg" xmlns:xlink="http://www.w3.org/1999/xlink" x="0px" y="0px"
	 viewBox="0 0 60 60" style="enable-background:new 0 0 60 60;" xml:space="preserve">
<style type="text/css">
	.st0{fill:#F0CA4C;}
</style>
<g>
	<path d="M30,0C13.4,0,0,13.4,0,30s13.4,30,30,30s30-13.4,30-30S46.6,0,30,0z M32.6,40.5C32.5,40.5,32.5,40.6,32.6,40.5
		c-1.6,1.6-3.2,3.2-4.8,4.8c-0.8,0.8-1.5,1.6-2.5,2.1c-0.6,0.3-1.2,0.6-1.9,0.7c-0.6,0.1-1.3,0.2-2,0.2c-0.7-0.1-1.3-0.2-1.9-0.4
		c-0.4-0.2-0.8-0.3-1.2-0.6c-0.4-0.2-0.7-0.5-1-0.7c-0.3-0.3-0.6-0.6-0.9-0.8c-0.5-0.5-0.9-0.9-1.4-1.4c-0.9-0.9-2-1.9-2.6-3.1
		c-0.3-0.6-0.5-1.2-0.6-1.9c-0.1-0.4-0.1-0.9-0.1-1.3c0-0.4,0.1-0.8,0.1-1.2c0.1-0.7,0.4-1.3,0.6-1.9c0.3-0.6,0.7-1.2,1.2-1.7
		c0.5-0.5,1-1,1.5-1.5c1.4-1.4,2.9-2.9,4.3-4.3c0.9-0.9,2.5-1,3.5,0c0.9,0.9,1,2.5,0,3.5c-0.6,0.6-1.1,1.1-1.7,1.7
		c-0.9,0.9-1.8,1.8-2.8,2.8c-0.5,0.5-1,0.9-1.4,1.4c-0.1,0.2-0.2,0.4-0.3,0.6c0,0.1-0.1,0.3-0.1,0.4c0,0.2,0,0.4,0,0.6
		c0,0.2,0.1,0.3,0.1,0.5c0.1,0.2,0.2,0.4,0.3,0.6c0.2,0.2,0.3,0.4,0.5,0.6c0.4,0.4,0.8,0.8,1.2,1.2c0.4,0.4,0.8,0.8,1.2,1.2
		c0.2,0.2,0.4,0.4,0.6,0.5c0.2,0.1,0.4,0.2,0.6,0.3c0.1,0,0.3,0.1,0.4,0.1c0.2,0,0.4,0,0.6,0c0.2,0,0.3-0.1,0.5-0.1
		c0.2-0.1,0.4-0.2,0.6-0.3c0.2-0.2,0.3-0.3,0.5-0.5c0.4-0.4,0.7-0.7,1.1-1.1c1.4-1.4,2.9-2.9,4.3-4.3c0.9-0.9,2.5-1,3.5,0
		C33.5,38,33.5,39.6,32.6,40.5z M30.7,32.7c-1.1,1.1-2.2,2.2-3.3,3.3c-0.9,0.9-2.5,1-3.5,0c-0.9-0.9-1-2.5,0-3.5
		c0.4-0.4,0.9-0.8,1.3-1.3c1.8-1.8,3.6-3.5,5.4-5.3c1.1-1.1,2.2-2.2,3.3-3.3c0.9-0.9,2.5-1,3.5,0c0.9,0.9,1,2.5,0,3.5
		c-0.4,0.4-0.9,0.8-1.3,1.3C34.2,29.2,32.5,31,30.7,32.7z M48.2,23.2c-0.1,0.7-0.4,1.3-0.6,1.9c-0.3,0.6-0.7,1.2-1.2,1.7
		c-0.5,0.5-1,1-1.5,1.5c-1.4,1.4-2.9,2.9-4.3,4.3c-0.9,0.9-2.5,1-3.5,0c-0.9-0.9-1-2.5,0-3.5c0.6-0.6,1.1-1.1,1.7-1.7
		c0.9-0.9,1.8-1.8,2.8-2.8c0.5-0.5,1-0.9,1.4-1.4c0.1-0.2,0.2-0.4,0.3-0.6c0-0.1,0.1-0.3,0.1-0.4c0-0.2,0-0.4,0-0.6
		c0-0.2-0.1-0.3-0.1-0.5c-0.1-0.2-0.2-0.4-0.3-0.6c-0.2-0.2-0.3-0.4-0.5-0.6c-0.4-0.4-0.8-0.8-1.2-1.2c-0.4-0.4-0.8-0.8-1.2-1.2
		c-0.2-0.2-0.4-0.4-0.6-0.5c-0.2-0.1-0.4-0.2-0.6-0.3c-0.1,0-0.3-0.1-0.4-0.1c-0.2,0-0.4,0-0.6,0c-0.2,0-0.3,0.1-0.5,0.1
		c-0.2,0.1-0.4,0.2-0.6,0.3c-0.2,0.2-0.3,0.3-0.5,0.5c-0.4,0.4-0.7,0.7-1.1,1.1c-1.4,1.4-2.9,2.9-4.3,4.3c-0.9,0.9-2.5,1-3.5,0
		c-0.9-0.9-1-2.5,0-3.5c0,0,0.1-0.1,0.1-0.1c1.6-1.6,3.1-3.1,4.7-4.7c0.8-0.8,1.5-1.6,2.5-2.1c0.6-0.3,1.2-0.6,1.9-0.7
		c0.6-0.1,1.3-0.2,2-0.2c0.7,0.1,1.3,0.2,1.9,0.4c0.4,0.2,0.8,0.3,1.2,0.6c0.4,0.2,0.7,0.5,1,0.7c0.3,0.3,0.6,0.6,0.9,0.8
		c0.5,0.5,0.9,0.9,1.4,1.4c0.9,0.9,2,1.9,2.6,3.1c0.3,0.6,0.5,1.2,0.6,1.9c0.1,0.4,0.1,0.9,0.1,1.3C48.3,22.4,48.2,22.8,48.2,23.2z"
		/>
	<path class="st0" d="M16.8,37.1C16.8,37.1,16.8,37.1,16.8,37.1C16.8,37.1,16.8,37.1,16.8,37.1C16.8,37.1,16.8,37.1,16.8,37.1z"/>
	<path class="st0" d="M16.6,37.5C16.6,37.5,16.6,37.6,16.6,37.5C16.6,37.6,16.6,37.6,16.6,37.5C16.6,37.6,16.6,37.5,16.6,37.5z"/>
	<ellipse transform="matrix(0.1047 -0.9945 0.9945 0.1047 -23.1228 50.6145)" class="st0" cx="16.5" cy="38.1" rx="0" ry="0"/>
	<polygon class="st0" points="16.6,37.6 16.6,37.6 16.6,37.6 	"/>
	<ellipse transform="matrix(0.3229 -0.9464 0.9464 0.3229 -24.3094 41.1877)" class="st0" cx="16.6" cy="37.6" rx="0" ry="0"/>
	<ellipse transform="matrix(0.5463 -0.8376 0.8376 0.5463 -23.4146 30.9299)" class="st0" cx="16.8" cy="37.1" rx="0" ry="0"/>
	<path class="st0" d="M16.9,37C16.9,37,16.8,37.1,16.9,37C16.8,37.1,16.8,37.1,16.9,37C16.9,37.1,16.9,37,16.9,37z"/>
	<path class="st0" d="M16.6,38.8C16.6,38.8,16.6,38.7,16.6,38.8C16.6,38.7,16.6,38.7,16.6,38.8C16.6,38.7,16.6,38.7,16.6,38.8z"/>
	<path class="st0" d="M16.5,38.1C16.5,38.1,16.5,38.1,16.5,38.1C16.5,38.1,16.5,38.1,16.5,38.1C16.5,38.1,16.5,38.1,16.5,38.1z"/>
	<path class="st0" d="M16.8,39.2C16.8,39.2,16.8,39.2,16.8,39.2C16.8,39.2,16.8,39.2,16.8,39.2C16.8,39.2,16.8,39.2,16.8,39.2z"/>
	<polygon class="st0" points="16.5,38.2 16.5,38.2 16.5,38.2 	"/>
	<path class="st0" d="M16.6,38.7C16.6,38.7,16.6,38.7,16.6,38.7C16.6,38.7,16.6,38.7,16.6,38.7C16.6,38.7,16.6,38.7,16.6,38.7z"/>
	<path class="st0" d="M16.6,37.6c0,0.2-0.1,0.4-0.1,0.6c0,0,0,0,0,0c0-0.1,0-0.2,0.1-0.3C16.6,37.8,16.6,37.7,16.6,37.6
		C16.6,37.6,16.6,37.6,16.6,37.6z"/>
	<ellipse transform="matrix(0.9592 -0.2829 0.2829 0.9592 -10.2743 6.284)" class="st0" cx="16.6" cy="38.7" rx="0" ry="0"/>
	<path class="st0" d="M16.8,37.1c-0.1,0.2-0.1,0.3-0.2,0.5c0,0,0,0,0,0c0-0.1,0.1-0.1,0.1-0.2C16.8,37.3,16.8,37.2,16.8,37.1
		C16.8,37.1,16.8,37.1,16.8,37.1z"/>
	<path class="st0" d="M16.9,39.3C16.9,39.3,16.9,39.3,16.9,39.3C16.8,39.2,16.8,39.2,16.9,39.3C16.8,39.3,16.9,39.3,16.9,39.3z"/>
	<path class="st0" d="M16.7,37.4c0.1-0.2,0.2-0.4,0.3-0.6c-0.1,0.1-0.2,0.2-0.2,0.3C16.8,37.2,16.8,37.3,16.7,37.4z"/>
	<path class="st0" d="M16.6,38.4c0-0.2,0-0.4,0-0.6c0,0.1,0,0.2-0.1,0.3C16.6,38.2,16.6,38.3,16.6,38.4z"/>
	<path class="st0" d="M16.8,37.1C16.8,37.1,16.8,37.1,16.8,37.1c0.1-0.1,0.2-0.2,0.2-0.2c0-0.1,0.1-0.2,0.1-0.2
		C17.1,36.8,17,36.9,16.8,37.1z"/>
	<path class="st0" d="M16.6,37.9c0-0.1,0.1-0.3,0.1-0.4c0,0.1-0.1,0.1-0.1,0.2C16.6,37.7,16.6,37.8,16.6,37.9z"/>
	<path class="st0" d="M16.8,39.3c0.1,0.1,0.2,0.3,0.3,0.4c-0.1-0.1-0.1-0.2-0.1-0.2C17,39.4,16.9,39.3,16.8,39.3
		C16.8,39.2,16.8,39.2,16.8,39.3z"/>
	<path class="st0" d="M16.8,39.2C16.8,39.2,16.8,39.2,16.8,39.2C16.8,39.2,16.8,39.2,16.8,39.2C16.8,39.2,16.8,39.2,16.8,39.2
		C16.8,39.2,16.8,39.2,16.8,39.2z"/>
	<path class="st0" d="M17.1,39.5c-0.1-0.2-0.2-0.4-0.3-0.6c0,0.1,0.1,0.2,0.1,0.3C16.9,39.3,17,39.4,17.1,39.5z"/>
	<path class="st0" d="M16.7,38.9c0-0.2-0.1-0.3-0.1-0.5c0,0.1,0,0.2,0,0.3C16.7,38.8,16.7,38.8,16.7,38.9z"/>
	<path class="st0" d="M16.6,38.7c0.1,0.2,0.1,0.3,0.2,0.5c0,0,0,0,0,0c0-0.1-0.1-0.2-0.1-0.3C16.7,38.8,16.7,38.8,16.6,38.7
		C16.6,38.7,16.6,38.7,16.6,38.7z"/>
	<path class="st0" d="M16.5,38.2c0,0.2,0,0.4,0.1,0.6c0,0,0,0,0,0c0-0.1,0-0.2,0-0.3C16.6,38.3,16.6,38.2,16.5,38.2
		C16.6,38.1,16.5,38.2,16.5,38.2z"/>
	<path class="st0" d="M22.9,43.2C22.9,43.2,22.9,43.2,22.9,43.2C22.9,43.2,22.9,43.2,22.9,43.2C22.9,43.2,22.9,43.2,22.9,43.2z"/>
	<path class="st0" d="M21.2,43.4C21.2,43.4,21.3,43.4,21.2,43.4C21.3,43.4,21.3,43.4,21.2,43.4C21.2,43.4,21.2,43.4,21.2,43.4z"/>
	<path class="st0" d="M20.8,43.2C20.8,43.2,20.8,43.2,20.8,43.2C20.8,43.2,20.8,43.2,20.8,43.2C20.8,43.2,20.8,43.2,20.8,43.2z"/>
	<polygon class="st0" points="21.3,43.4 21.3,43.4 21.3,43.4 	"/>
	<path class="st0" d="M20.7,43.1C20.7,43.1,20.7,43.2,20.7,43.1C20.8,43.2,20.8,43.2,20.7,43.1C20.7,43.1,20.7,43.1,20.7,43.1z"/>
	<ellipse transform="matrix(0.5408 -0.8412 0.8412 0.5408 -26.7682 37.2866)" class="st0" cx="20.8" cy="43.2" rx="0" ry="0"/>
	<path class="st0" d="M21.8,43.5C21.8,43.5,21.8,43.5,21.8,43.5C21.8,43.5,21.8,43.5,21.8,43.5C21.8,43.5,21.8,43.5,21.8,43.5z"/>
	<path class="st0" d="M23,43.1C23,43.1,23,43.1,23,43.1C22.9,43.2,22.9,43.2,23,43.1C22.9,43.2,23,43.1,23,43.1z"/>
	<path class="st0" d="M21.1,43.3c-0.2-0.1-0.4-0.2-0.6-0.3c0.1,0.1,0.2,0.2,0.2,0.2C20.9,43.2,21,43.2,21.1,43.3z"/>
	<ellipse transform="matrix(0.3229 -0.9464 0.9464 0.3229 -26.6458 49.4983)" class="st0" cx="21.3" cy="43.4" rx="0" ry="0"/>
	<path class="st0" d="M22.4,43.4C22.4,43.4,22.4,43.4,22.4,43.4C22.4,43.4,22.4,43.4,22.4,43.4C22.4,43.4,22.4,43.4,22.4,43.4z"/>
	<path class="st0" d="M22.4,43.4C22.4,43.4,22.4,43.4,22.4,43.4C22.4,43.4,22.4,43.4,22.4,43.4C22.4,43.4,22.4,43.4,22.4,43.4z"/>
	<polygon class="st0" points="21.8,43.5 21.8,43.5 21.8,43.5 	"/>
	<path class="st0" d="M21.3,43.4c0.2,0,0.4,0.1,0.6,0.1c0,0,0,0,0,0c-0.1,0-0.2,0-0.3-0.1C21.5,43.4,21.4,43.4,21.3,43.4
		C21.3,43.4,21.3,43.4,21.3,43.4z"/>
	<path class="st0" d="M22.1,43.4c-0.2,0-0.4,0-0.6,0c0.1,0,0.2,0,0.3,0.1C21.9,43.4,22,43.4,22.1,43.4z"/>
	<path class="st0" d="M21.8,43.5c0.2,0,0.4,0,0.6-0.1c0,0,0,0,0,0c-0.1,0-0.2,0-0.3,0C22,43.4,21.9,43.4,21.8,43.5
		C21.8,43.4,21.8,43.5,21.8,43.5z"/>
	<path class="st0" d="M20.8,43.2c0.2,0.1,0.3,0.1,0.5,0.2c0,0,0,0,0,0c-0.1,0-0.1-0.1-0.2-0.1C21,43.2,20.9,43.2,20.8,43.2
		C20.8,43.2,20.8,43.2,20.8,43.2z"/>
	<path class="st0" d="M21.5,43.4c-0.1,0-0.3-0.1-0.4-0.1c0.1,0,0.1,0.1,0.2,0.1C21.4,43.4,21.5,43.4,21.5,43.4z"/>
	<path class="st0" d="M22.6,43.3c-0.2,0-0.3,0.1-0.5,0.1c0.1,0,0.2,0,0.3,0C22.5,43.3,22.5,43.3,22.6,43.3z"/>
	<path class="st0" d="M22.9,43.2C22.9,43.2,22.9,43.2,22.9,43.2C22.9,43.2,22.9,43.2,22.9,43.2C22.9,43.2,22.9,43.2,22.9,43.2
		C22.9,43.2,22.9,43.2,22.9,43.2z"/>
	<ellipse transform="matrix(0.1054 -0.9944 0.9944 0.1054 -23.6733 60.5865)" class="st0" cx="21.8" cy="43.5" rx="0" ry="0"/>
	<ellipse transform="matrix(0.9592 -0.2829 0.2829 0.9592 -11.3554 8.1103)" class="st0" cx="22.4" cy="43.4" rx="0" ry="0"/>
	<path class="st0" d="M23.2,42.9c-0.2,0.1-0.4,0.2-0.6,0.3c0.1,0,0.2-0.1,0.3-0.1C23,43.1,23.1,43,23.2,42.9z"/>
	<path class="st0" d="M22.4,43.4c0.2-0.1,0.3-0.1,0.5-0.2c0,0,0,0,0,0c-0.1,0-0.2,0.1-0.3,0.1C22.5,43.3,22.5,43.3,22.4,43.4
		C22.4,43.4,22.4,43.4,22.4,43.4z"/>
	<path class="st0" d="M22.9,43.2c0.1-0.1,0.3-0.2,0.4-0.3c-0.1,0.1-0.2,0.1-0.2,0.1C23.1,43,23,43.1,22.9,43.2
		C22.9,43.2,22.9,43.2,22.9,43.2z"/>
	<path class="st0" d="M20.8,43.2C20.8,43.2,20.8,43.2,20.8,43.2c-0.1-0.1-0.1-0.1-0.2-0.2c-0.1-0.1-0.2-0.1-0.2-0.1
		C20.4,42.9,20.6,43,20.8,43.2z"/>
	<ellipse transform="matrix(0.5463 -0.8376 0.8376 0.5463 0.3821 46.5507)" class="st0" cx="43.2" cy="22.9" rx="0" ry="0"/>
	<ellipse transform="matrix(0.3189 -0.9478 0.9478 0.3189 8.2933 56.3753)" class="st0" cx="43.4" cy="22.4" rx="0" ry="0"/>
	<path class="st0" d="M43.1,23C43.1,23,43.2,22.9,43.1,23C43.2,22.9,43.2,22.9,43.1,23C43.1,22.9,43.1,23,43.1,23z"/>
	<path class="st0" d="M43.1,20.7C43.1,20.7,43.1,20.7,43.1,20.7C43.2,20.8,43.2,20.8,43.1,20.7C43.2,20.7,43.1,20.7,43.1,20.7z"/>
	<path class="st0" d="M43.2,22.9C43.2,22.9,43.2,22.9,43.2,22.9C43.2,22.9,43.2,22.9,43.2,22.9C43.2,22.9,43.2,22.9,43.2,22.9z"/>
	<ellipse transform="matrix(0.1047 -0.9945 0.9945 0.1047 17.1715 62.7747)" class="st0" cx="43.5" cy="21.9" rx="0" ry="0"/>
	<path class="st0" d="M43.5,21.9C43.5,21.9,43.5,21.9,43.5,21.9C43.5,21.8,43.5,21.9,43.5,21.9C43.5,21.9,43.5,21.9,43.5,21.9z"/>
	<path class="st0" d="M43.4,21.2C43.4,21.2,43.4,21.3,43.4,21.2C43.4,21.3,43.4,21.3,43.4,21.2C43.4,21.3,43.4,21.3,43.4,21.2z"/>
	<path class="st0" d="M43.2,20.8C43.2,20.8,43.2,20.8,43.2,20.8C43.2,20.8,43.2,20.8,43.2,20.8C43.2,20.8,43.2,20.8,43.2,20.8z"/>
	<path class="st0" d="M43.4,21.3C43.4,21.3,43.4,21.3,43.4,21.3C43.4,21.3,43.4,21.3,43.4,21.3C43.4,21.3,43.4,21.3,43.4,21.3z"/>
	<path class="st0" d="M43.2,20.8C43.2,20.8,43.2,20.8,43.2,20.8C43.2,20.8,43.2,20.8,43.2,20.8C43.2,20.8,43.2,20.8,43.2,20.8
		C43.2,20.8,43.2,20.8,43.2,20.8z"/>
	<polygon class="st0" points="43.5,21.8 43.5,21.8 43.5,21.8 	"/>
	<polygon class="st0" points="43.4,22.4 43.4,22.4 43.4,22.4 	"/>
	<ellipse transform="matrix(0.9603 -0.2788 0.2788 0.9603 -4.2129 12.9377)" class="st0" cx="43.4" cy="21.3" rx="0" ry="0"/>
	<path class="st0" d="M43.3,22.6c-0.1,0.2-0.2,0.4-0.3,0.6c0.1-0.1,0.2-0.2,0.2-0.3C43.2,22.8,43.2,22.7,43.3,22.6z"/>
	<path class="st0" d="M43.4,22.4c0-0.2,0.1-0.4,0.1-0.6c0,0,0,0,0,0c0,0.1,0,0.2-0.1,0.3C43.4,22.2,43.4,22.3,43.4,22.4
		C43.4,22.4,43.4,22.4,43.4,22.4z"/>
	<path class="st0" d="M43.4,22.1c0,0.1-0.1,0.3-0.1,0.4c0-0.1,0.1-0.1,0.1-0.2C43.4,22.3,43.4,22.2,43.4,22.1z"/>
	<path class="st0" d="M43.2,22.9c0.1-0.2,0.1-0.3,0.2-0.5c0,0,0,0,0,0c0,0.1-0.1,0.1-0.1,0.2C43.2,22.7,43.2,22.8,43.2,22.9
		C43.2,22.9,43.2,22.9,43.2,22.9z"/>
	<path class="st0" d="M43.2,22.9C43.2,22.9,43.2,22.9,43.2,22.9c-0.1,0.1-0.2,0.2-0.2,0.2c0,0.1-0.1,0.2-0.1,0.2
		C42.9,23.2,43,23.1,43.2,22.9z"/>
	<path class="st0" d="M43.4,21.3c-0.1-0.2-0.1-0.3-0.2-0.5c0,0,0,0,0,0c0,0.1,0.1,0.2,0.1,0.3C43.3,21.2,43.3,21.2,43.4,21.3
		C43.4,21.3,43.4,21.3,43.4,21.3z"/>
	<path class="st0" d="M43.4,21.6c0,0.2,0,0.4,0,0.6c0-0.1,0-0.2,0.1-0.3C43.4,21.8,43.4,21.7,43.4,21.6z"/>
	<path class="st0" d="M43.2,20.7c-0.1-0.1-0.2-0.3-0.3-0.4c0.1,0.1,0.1,0.2,0.1,0.2C43,20.6,43.1,20.7,43.2,20.7
		C43.2,20.8,43.2,20.8,43.2,20.7z"/>
	<path class="st0" d="M42.9,20.5c0.1,0.2,0.2,0.4,0.3,0.6c0-0.1-0.1-0.2-0.1-0.3C43.1,20.7,43,20.6,42.9,20.5z"/>
	<path class="st0" d="M43.3,21.1c0,0.2,0.1,0.3,0.1,0.5c0-0.1,0-0.2,0-0.3C43.3,21.2,43.3,21.2,43.3,21.1z"/>
	<path class="st0" d="M43.5,21.8c0-0.2,0-0.4-0.1-0.6c0,0,0,0,0,0c0,0.1,0,0.2,0,0.3C43.4,21.7,43.4,21.8,43.5,21.8
		C43.4,21.9,43.5,21.8,43.5,21.8z"/>
	<path class="st0" d="M43.4,22.5C43.4,22.5,43.4,22.4,43.4,22.5C43.4,22.4,43.4,22.4,43.4,22.5C43.4,22.4,43.4,22.5,43.4,22.5z"/>
	<path class="st0" d="M39.2,16.8C39.2,16.8,39.2,16.8,39.2,16.8C39.2,16.8,39.2,16.8,39.2,16.8C39.2,16.8,39.2,16.8,39.2,16.8z"/>
	<path class="st0" d="M39.3,16.9C39.3,16.9,39.3,16.8,39.3,16.9C39.2,16.8,39.2,16.8,39.3,16.9C39.3,16.9,39.3,16.9,39.3,16.9z"/>
	<path class="st0" d="M39.2,16.8C39.2,16.8,39.2,16.8,39.2,16.8c0.1,0.1,0.1,0.1,0.2,0.2c0.1,0.1,0.2,0.1,0.2,0.1
		C39.6,17.1,39.4,17,39.2,16.8z"/>
	
		<ellipse transform="matrix(9.820717e-02 -0.9952 0.9952 9.820717e-02 17.9467 52.9038)" class="st0" cx="38.2" cy="16.5" rx="0" ry="0"/>
	<ellipse transform="matrix(0.5408 -0.8412 0.8412 0.5408 3.8522 40.7387)" class="st0" cx="39.2" cy="16.8" rx="0" ry="0"/>
	<ellipse transform="matrix(0.3189 -0.9478 0.9478 0.3189 10.6193 48.0357)" class="st0" cx="38.7" cy="16.6" rx="0" ry="0"/>
	<path class="st0" d="M38.8,16.6C38.8,16.6,38.7,16.6,38.8,16.6C38.7,16.6,38.7,16.6,38.8,16.6C38.8,16.6,38.8,16.6,38.8,16.6z"/>
	<path class="st0" d="M37.1,16.8C37.1,16.8,37.1,16.8,37.1,16.8C37.1,16.8,37.1,16.8,37.1,16.8C37.1,16.8,37.1,16.8,37.1,16.8z"/>
	<path class="st0" d="M37,16.9C37,16.9,37,16.9,37,16.9C37.1,16.8,37.1,16.8,37,16.9C37.1,16.8,37,16.9,37,16.9z"/>
	<path class="st0" d="M38.2,16.5C38.2,16.5,38.2,16.5,38.2,16.5C38.2,16.5,38.2,16.5,38.2,16.5C38.2,16.5,38.2,16.5,38.2,16.5z"/>
	<path class="st0" d="M37.6,16.6C37.6,16.6,37.6,16.6,37.6,16.6C37.6,16.6,37.6,16.6,37.6,16.6C37.6,16.6,37.6,16.6,37.6,16.6z"/>
	<polygon class="st0" points="38.2,16.5 38.2,16.5 38.2,16.5 	"/>
	<path class="st0" d="M37.6,16.6C37.6,16.6,37.6,16.6,37.6,16.6C37.6,16.6,37.6,16.6,37.6,16.6C37.6,16.6,37.6,16.6,37.6,16.6z"/>
	<polygon class="st0" points="38.7,16.6 38.7,16.6 38.7,16.6 	"/>
	<path class="st0" d="M38.7,16.6c-0.2,0-0.4-0.1-0.6-0.1c0,0,0,0,0,0c0.1,0,0.2,0,0.3,0.1C38.5,16.6,38.6,16.6,38.7,16.6
		C38.7,16.6,38.7,16.6,38.7,16.6z"/>
	<path class="st0" d="M37.9,16.6c0.2,0,0.4,0,0.6,0c-0.1,0-0.2,0-0.3-0.1C38.1,16.6,38,16.6,37.9,16.6z"/>
	<path class="st0" d="M38.5,16.6c0.1,0,0.3,0.1,0.4,0.1c-0.1,0-0.1-0.1-0.2-0.1C38.6,16.6,38.5,16.6,38.5,16.6z"/>
	<path class="st0" d="M39.2,16.8c-0.2-0.1-0.3-0.1-0.5-0.2c0,0,0,0,0,0c0.1,0,0.1,0.1,0.2,0.1C39,16.8,39.1,16.8,39.2,16.8
		C39.2,16.8,39.2,16.8,39.2,16.8z"/>
	<path class="st0" d="M38.9,16.7c0.2,0.1,0.4,0.2,0.6,0.3c-0.1-0.1-0.1-0.2-0.2-0.2C39.1,16.8,39,16.8,38.9,16.7z"/>
	<ellipse transform="matrix(0.9592 -0.2829 0.2829 0.9592 -3.1669 11.3135)" class="st0" cx="37.6" cy="16.6" rx="0" ry="0"/>
	<path class="st0" d="M38.2,16.5c-0.2,0-0.4,0-0.6,0.1c0,0,0,0,0,0c0.1,0,0.2,0,0.3,0C38,16.6,38.1,16.6,38.2,16.5
		C38.2,16.6,38.2,16.5,38.2,16.5z"/>
	<path class="st0" d="M36.8,17.1c0.2-0.1,0.4-0.2,0.6-0.3c-0.1,0-0.2,0.1-0.3,0.1C37,16.9,36.9,17,36.8,17.1z"/>
	<path class="st0" d="M37.1,16.8C37.1,16.8,37.1,16.8,37.1,16.8C37.1,16.8,37.1,16.8,37.1,16.8C37.1,16.8,37.1,16.8,37.1,16.8
		C37.1,16.8,37.1,16.8,37.1,16.8z"/>
	<path class="st0" d="M37.1,16.8c-0.1,0.1-0.3,0.2-0.4,0.3c0.1-0.1,0.2-0.1,0.2-0.1C36.9,17,37,16.9,37.1,16.8
		C37.1,16.8,37.1,16.8,37.1,16.8z"/>
	<path class="st0" d="M37.6,16.6c-0.2,0.1-0.3,0.1-0.5,0.2c0,0,0,0,0,0c0.1,0,0.2-0.1,0.3-0.1C37.5,16.7,37.5,16.7,37.6,16.6
		C37.6,16.6,37.6,16.6,37.6,16.6z"/>
	<path class="st0" d="M37.4,16.7c0.2,0,0.3-0.1,0.5-0.1c-0.1,0-0.2,0-0.3,0C37.5,16.7,37.5,16.7,37.4,16.7z"/>
</g>
</svg>
