<?xml version="1.0" encoding="utf-8"?>
<!-- Generator: Adobe Illustrator 21.0.2, SVG Export Plug-In . SVG Version: 6.00 Build 0)  -->
<svg version="1.1" id="Layer_1" xmlns="http://www.w3.org/2000/svg" xmlns:xlink="http://www.w3.org/1999/xlink" x="0px" y="0px"
	 viewBox="0 0 200.3 131.2" style="enable-background:new 0 0 200.3 131.2;" xml:space="preserve">
<g>
	<path d="M100.2,90.6c-0.9,0-1.7-0.5-2.1-1.2L48.6,3.7c-0.4-0.8-0.4-1.7,0-2.5C49,0.5,49.8,0,50.7,0h98.9c0.9,0,1.7,0.5,2.1,1.2
		c0.4,0.8,0.4,1.7,0,2.5l-49.5,85.7C101.9,90.2,101,90.6,100.2,90.6z M55,4.9l45.2,78.3l45.2-78.3H55z"/>
</g>
<g>
	<path d="M0,113.8h7c3.3,0,5.8,1.9,5.8,5.4c0,2.6-1.8,5.3-5.6,5.3H3.2v6.4H0V113.8z M6.6,121.9c1.8,0,3.1-0.9,3.1-2.7
		c0-2-1.3-2.7-3.1-2.7H3.2v5.3H6.6z"/>
	<path d="M17.4,125v-11.2h3.2v10.8c0,2.1,1,3.7,3.5,3.7c2.3,0,3.5-1.2,3.5-3.7v-10.8h3.2v11c0,4.1-2.7,6.4-6.7,6.4
		S17.4,129.2,17.4,125z"/>
	<path d="M36.5,113.8h3.1l7.4,11.7h0v-11.7h3.1V131h-3.1l-7.4-11.7h0V131h-3.1V113.8z"/>
	<path d="M60.9,113.8h2.9l6.3,17.1h-3.4l-1.2-3.6H59l-1.3,3.6h-3.1L60.9,113.8z M64.6,124.6l-2.3-6.9h0l-2.4,6.9H64.6z"/>
	<path d="M74.6,113.8h3.1l7.4,11.7h0v-11.7h3.1V131h-3.1l-7.4-11.7h0V131h-3.1V113.8z"/>
	<path d="M94.1,113.8h3.2V131h-3.2V113.8z"/>
	<path d="M103.1,113.8h3.9l4.4,10.7h0l4.3-10.7h3.9V131h-3.1v-11.4h0l-3.9,9.4h-2.5l-3.9-9.4h0V131h-3.1V113.8z"/>
	<path d="M130.4,113.8h2.9l6.3,17.1h-3.4l-1.2-3.6h-6.5l-1.3,3.6h-3.1L130.4,113.8z M134.1,124.6l-2.3-6.9h0l-2.4,6.9H134.1z"/>
	<path d="M146,116.6H141v-2.7h13v2.7h-4.9V131H146V116.6z"/>
	<path d="M158.8,113.8h3.2V131h-3.2V113.8z"/>
	<path d="M167.4,125.3v-5.5c0-4.1,3.5-6.3,6.8-6.3c3.7,0,7,2.4,7,6.2v5.1c0,4.1-3.5,6.3-6.8,6.3
		C170.7,131.2,167.4,129.2,167.4,125.3z M178.1,125.1v-5.5c0-2.1-1.8-3.2-3.8-3.2c-1.6,0-3.7,0.9-3.7,3.3v5.5c0,2.1,1.8,3.2,3.8,3.2
		C176,128.4,178.1,127.5,178.1,125.1z"/>
	<path d="M186.7,113.8h3.1l7.4,11.7h0v-11.7h3.1V131h-3.1l-7.4-11.7h0V131h-3.1V113.8z"/>
</g>
</svg>
