<?xml version="1.0" encoding="utf-8"?>
<!-- Generator: Adobe Illustrator 21.0.2, SVG Export Plug-In . SVG Version: 6.00 Build 0)  -->
<svg version="1.1" id="Layer_1" xmlns="http://www.w3.org/2000/svg" xmlns:xlink="http://www.w3.org/1999/xlink" x="0px" y="0px"
	 viewBox="0 0 30 30" style="enable-background:new 0 0 30 30;" xml:space="preserve">
<style type="text/css">
	.st0{fill:#FCC438;}
</style>
<path class="st0" d="M29.9,8.1c-1.7,9.6-11,17.8-13.9,19.6c-2.8,1.9-5.4-0.7-6.3-2.7C8.6,22.7,5.4,10.6,4.6,9.5c-0.8-1-3.4,1-3.4,1
	L0,8.9c0,0,5.1-6.2,9-7c4.1-0.8,4.1,6.4,5.1,10.5c1,3.9,1.6,6.1,2.4,6.1c0.8,0,2.4-2.2,4.2-5.5c1.8-3.3-0.1-6.3-3.5-4.2
	C18.6,0.5,31.5-1.6,29.9,8.1z"/>
</svg>
