<?xml version="1.0" encoding="utf-8"?>
<!-- Generator: Adobe Illustrator 21.0.2, SVG Export Plug-In . SVG Version: 6.00 Build 0)  -->
<svg version="1.1" id="Layer_1" xmlns="http://www.w3.org/2000/svg" xmlns:xlink="http://www.w3.org/1999/xlink" x="0px" y="0px"
	 viewBox="0 0 53.3 36.1" style="enable-background:new 0 0 53.3 36.1;" xml:space="preserve">
<style type="text/css">
	.st0{fill:#FFFFFF;}
</style>
<g>
	<g>
		<path d="M50.9,36.1H2.5C1.1,36.1,0,35,0,33.7V2.5C0,1.1,1.1,0,2.5,0h48.4c1.4,0,2.5,1.1,2.5,2.5v31.2C53.3,35,52.2,36.1,50.9,36.1
			z M4.9,31.2h43.5V4.9H4.9V31.2z"/>
	</g>
	<g>
		<path d="M50.9,36.1c-0.5,0-0.9-0.1-1.3-0.4L26.7,21L3.8,35.7c-1.1,0.7-2.7,0.4-3.4-0.7c-0.7-1.1-0.4-2.7,0.7-3.4L25.3,16
			c0.8-0.5,1.9-0.5,2.7,0l24.2,15.6c1.1,0.7,1.5,2.3,0.7,3.4C52.5,35.7,51.7,36.1,50.9,36.1z"/>
	</g>
	<g>
		<path class="st0" d="M2.5,2.5l20.1,18c2.3,2.1,5.9,2.1,8.3,0l20.1-18H2.5z"/>
		<path d="M26.7,24.6c-2.1,0-4.1-0.7-5.8-2.2L0.8,4.3c-0.8-0.7-1-1.8-0.7-2.7C0.5,0.6,1.4,0,2.5,0h48.4c1,0,1.9,0.6,2.3,1.6
			c0.4,1,0.1,2-0.7,2.7l-20.1,18C30.8,23.8,28.7,24.6,26.7,24.6z M8.9,4.9l15.3,13.7c1.4,1.3,3.5,1.3,5,0L44.4,4.9H8.9z"/>
	</g>
</g>
</svg>
