<?xml version="1.0" encoding="utf-8"?>
<!-- Generator: Adobe Illustrator 21.0.2, SVG Export Plug-In . SVG Version: 6.00 Build 0)  -->
<svg version="1.1" id="Layer_1" xmlns="http://www.w3.org/2000/svg" xmlns:xlink="http://www.w3.org/1999/xlink" x="0px" y="0px"
	 viewBox="0 0 30 30" style="enable-background:new 0 0 30 30;" xml:space="preserve">
<style type="text/css">
	.st0{fill:#FCC438;}
</style>
<path class="st0" d="M24.1,14.9c0,5-4.1,9.1-9.1,9.1c-5,0-9.1-4.1-9.1-9.1c0-0.6,0.1-1.2,0.2-1.7H0v12.1c0,2.6,2.1,4.7,4.7,4.7h20.6
	c2.6,0,4.7-2.1,4.7-4.7V13.2h-6.1C24,13.8,24.1,14.3,24.1,14.9z M25.3-0.1H4.7C2.1-0.1,0,2,0,4.6v5.1h7.6c1.6-2.3,4.3-3.8,7.4-3.8
	c3.1,0,5.8,1.5,7.4,3.8H30V4.6C30,2,27.9-0.1,25.3-0.1z M27.6,5.7c0,0.5-0.4,0.8-0.8,0.8h-2.5c-0.5,0-0.8-0.4-0.8-0.8V3.2
	c0-0.5,0.4-0.8,0.8-0.8h2.5c0.5,0,0.8,0.4,0.8,0.8V5.7z M20.6,14.9c0-3.1-2.5-5.6-5.6-5.6c-3.1,0-5.6,2.5-5.6,5.6s2.5,5.6,5.6,5.6
	C18.1,20.5,20.6,18,20.6,14.9z"/>
</svg>
