<?xml version="1.0" encoding="utf-8"?>
<!-- Generator: Adobe Illustrator 21.0.2, SVG Export Plug-In . SVG Version: 6.00 Build 0)  -->
<svg version="1.1" id="Layer_1" xmlns="http://www.w3.org/2000/svg" xmlns:xlink="http://www.w3.org/1999/xlink" x="0px" y="0px"
	 viewBox="0 0 50 50" style="enable-background:new 0 0 50 50;" xml:space="preserve">
<g>
	<g>
		<g>
			<path d="M39.6,29.5c0,2.6,0,5.3,0,7.9c0,1.1,0,2.2,0,3.4c0,0.6,0,1.3-0.1,2c0-0.2,0.1-0.4,0.1-0.6c-0.1,0.5-0.2,0.9-0.4,1.4
				c0.1-0.2,0.2-0.4,0.2-0.6c-0.2,0.4-0.4,0.8-0.7,1.2c0.1-0.2,0.3-0.3,0.4-0.5c-0.3,0.4-0.6,0.7-1,1c0.2-0.1,0.3-0.3,0.5-0.4
				c-0.4,0.3-0.8,0.5-1.2,0.7c0.2-0.1,0.4-0.2,0.6-0.3c-0.5,0.2-0.9,0.3-1.4,0.4c0.2,0,0.4-0.1,0.7-0.1c-0.6,0.1-1.2,0-1.8,0
				c-1.1,0-2.2,0-3.2,0c-3.4,0-6.7,0-10.1,0c-3.3,0-6.7,0-10,0c-1.1,0-2.1,0-3.2,0c-0.6,0-1.2,0-1.8-0.1c0.2,0,0.4,0.1,0.6,0.1
				c-0.5-0.1-0.9-0.2-1.4-0.4c0.2,0.1,0.4,0.2,0.6,0.2c-0.4-0.2-0.8-0.4-1.2-0.7c0.2,0.1,0.3,0.3,0.5,0.4c-0.4-0.3-0.7-0.6-1-1
				c0.1,0.2,0.3,0.3,0.4,0.5c-0.3-0.4-0.5-0.8-0.7-1.2c0.1,0.2,0.2,0.4,0.3,0.6C5.2,43,5.1,42.5,5,42c0,0.2,0.1,0.4,0.1,0.7
				c-0.1-0.6,0-1.2,0-1.8c0-1.1,0-2.2,0-3.2c0-3.4,0-6.7,0-10.1c0-3.3,0-6.7,0-10c0-1.1,0-2.1,0-3.2c0-0.6,0-1.2,0.1-1.8
				c0,0.2-0.1,0.4-0.1,0.6c0.1-0.5,0.2-0.9,0.4-1.4c-0.1,0.2-0.2,0.4-0.2,0.6c0.2-0.4,0.4-0.8,0.7-1.2c-0.1,0.2-0.3,0.3-0.4,0.5
				c0.3-0.4,0.6-0.7,1-1c-0.2,0.1-0.3,0.3-0.5,0.4c0.4-0.3,0.8-0.5,1.2-0.7c-0.2,0.1-0.4,0.2-0.6,0.3C7,10.5,7.5,10.4,8,10.3
				c-0.2,0-0.4,0.1-0.7,0.1c1-0.1,2,0,2.9,0c1.7,0,3.5,0,5.2,0c1.6,0,3.3,0,4.9,0c1.4,0,2.5-1.1,2.5-2.5c0-1.3-1.1-2.5-2.5-2.5
				c-2.6,0-5.3,0-7.9,0c-1.3,0-2.7,0-4,0c-0.7,0-1.4,0.1-2,0.2C5.6,5.7,4.8,6.1,4.1,6.4C3.4,6.8,2.8,7.3,2.3,7.9
				c-1.4,1.5-2.2,3.5-2.2,5.6c0,0.8,0,1.5,0,2.3c0,3.1,0,6.1,0,9.2c0,3.5,0,7.1,0,10.6c0,2.1,0,4.1,0,6.2c0,0.5,0.1,1.1,0.1,1.6
				C0.3,44.2,0.7,45,1,45.7c0.3,0.7,0.9,1.3,1.4,1.9c1.5,1.5,3.6,2.3,5.8,2.3c2.1,0,4.1,0,6.2,0c3.5,0,7.1,0,10.6,0
				c3.1,0,6.1,0,9.2,0c0.8,0,1.5,0,2.3,0c0.3,0,0.6,0,0.9,0c0.5-0.1,1-0.1,1.5-0.2c0.5-0.1,1-0.3,1.4-0.6c0.7-0.3,1.4-0.8,1.9-1.3
				c1.1-1,2-2.6,2.3-4.1c0.1-0.7,0.2-1.3,0.2-2c0-1.3,0-2.7,0-4c0-2.7,0-5.4,0-8c0,0,0,0,0,0c0-1.4-1.1-2.5-2.5-2.5
				C40.8,27,39.6,28.2,39.6,29.5L39.6,29.5z"/>
		</g>
	</g>
	<g>
		<g>
			<path d="M27.7,5.1c2.1,0,4.1,0,6.2,0c3.5,0,6.9,0,10.4,0c1.1,0,2.1,0,3.2,0c1.4,0,2.5-1.1,2.5-2.5c0-1.3-1.1-2.5-2.5-2.5
				c-2.1,0-4.1,0-6.2,0c-3.5,0-6.9,0-10.4,0c-1.1,0-2.1,0-3.2,0c-1.4,0-2.5,1.1-2.5,2.5C25.2,3.9,26.3,5.1,27.7,5.1L27.7,5.1z"/>
		</g>
	</g>
	<g>
		<g>
			<path d="M49.9,22.3c0-2.1,0-4.1,0-6.2c0-3.5,0-6.9,0-10.4c0-1.1,0-2.1,0-3.2c0-1.4-1.1-2.5-2.5-2.5c-1.3,0-2.5,1.1-2.5,2.5
				c0,2.1,0,4.1,0,6.2c0,3.5,0,6.9,0,10.4c0,1.1,0,2.1,0,3.2c0,1.4,1.1,2.5,2.5,2.5C48.7,24.8,49.9,23.7,49.9,22.3L49.9,22.3z"/>
		</g>
	</g>
	<g>
		<g>
			<path d="M21.3,32.2c0.8-0.8,1.7-1.7,2.5-2.5c2.1-2.1,4.1-4.1,6.2-6.2c2.6-2.6,5.1-5.1,7.7-7.7c2.3-2.3,4.7-4.7,7-7
				c1.4-1.4,2.8-2.7,4.1-4.1c0.1-0.1,0.2-0.2,0.4-0.4c1-1,0.9-2.6,0-3.5c-1-1-2.6-0.9-3.5,0c-0.8,0.8-1.7,1.7-2.5,2.5
				C41,5.4,39,7.5,36.9,9.6c-2.6,2.6-5.1,5.1-7.7,7.7c-2.3,2.3-4.7,4.7-7,7c-1.4,1.4-2.8,2.7-4.1,4.1c-0.1,0.1-0.2,0.2-0.4,0.4
				c-1,1-0.9,2.6,0,3.5C18.7,33.2,20.3,33.2,21.3,32.2L21.3,32.2z"/>
		</g>
	</g>
</g>
</svg>
