<svg width="14.95" xmlns="http://www.w3.org/2000/svg" height="15" fill="none"><g style="fill: rgb(0, 0, 0);"><path d="M12.010,7.475C12.010,9.967,9.967,12.010,7.475,12.010C4.983,12.010,2.940,9.967,2.940,7.475C2.940,7.176,2.990,6.877,3.040,6.628L0.000,6.628L0.000,12.658C0.000,13.953,1.047,15.000,2.342,15.000L12.608,15.000C13.904,15.000,14.950,13.953,14.950,12.658L14.950,6.628L11.910,6.628C11.960,6.927,12.010,7.176,12.010,7.475ZZM12.608,0.000L2.342,0.000C1.047,0.000,0.000,1.047,0.000,2.342L0.000,4.884L3.787,4.884C4.585,3.738,5.930,2.990,7.475,2.990C9.020,2.990,10.365,3.738,11.163,4.884L14.950,4.884L14.950,2.342C14.950,1.047,13.904,0.000,12.608,0.000ZZM13.754,2.890C13.754,3.140,13.555,3.289,13.355,3.289L12.110,3.289C11.860,3.289,11.711,3.090,11.711,2.890L11.711,1.645C11.711,1.395,11.910,1.246,12.110,1.246L13.355,1.246C13.605,1.246,13.754,1.445,13.754,1.645L13.754,2.890ZZM10.266,7.475C10.266,5.930,9.020,4.684,7.475,4.684C5.930,4.684,4.684,5.930,4.684,7.475C4.684,9.020,5.930,10.266,7.475,10.266C9.020,10.266,10.266,9.020,10.266,7.475ZZ" style="fill: rgb(252, 196, 56);" class="fills"/></g></svg>