<svg width="38" xmlns="http://www.w3.org/2000/svg" height="25.674" fill="none"><g style="fill: rgb(0, 0, 0);"><path d="M36.222,25.674L1.801,25.674C0.805,25.674,0.023,24.891,0.023,23.967L0.023,1.778C0.023,0.782,0.805,0.000,1.801,0.000L36.222,0.000C37.218,0.000,38.000,0.782,38.000,1.778L38.000,23.967C37.929,24.891,37.147,25.674,36.222,25.674ZZM3.508,22.189L34.444,22.189L34.444,3.485L3.508,3.485L3.508,22.189ZZ" style="fill: rgb(0, 0, 0);" class="fills"/><path d="M36.222,25.674C35.866,25.674,35.582,25.602,35.298,25.389L19.012,14.935L2.726,25.389C1.943,25.887,0.805,25.674,0.308,24.891C-0.190,24.109,0.023,22.971,0.805,22.473L18.016,11.379C18.585,11.023,19.367,11.023,19.936,11.379L37.147,22.473C37.929,22.971,38.213,24.109,37.644,24.891C37.360,25.389,36.791,25.674,36.222,25.674ZZ" style="fill: rgb(0, 0, 0);" class="fills"/><g class="fills"><path d="M1.801,1.778L16.096,14.579C17.731,16.073,20.292,16.073,21.998,14.579L36.293,1.778L1.801,1.778ZZ" class="st1" style="fill: rgb(255, 255, 255); fill-opacity: 1;"/></g><path d="M19.012,17.495C17.518,17.495,16.096,16.997,14.887,15.930L0.592,3.058C0.023,2.560,-0.119,1.778,0.094,1.138C0.379,0.427,1.019,0.000,1.801,0.000L36.222,0.000C36.933,0.000,37.573,0.427,37.858,1.138C38.142,1.849,37.929,2.560,37.360,3.058L23.065,15.859C21.927,16.926,20.434,17.495,19.012,17.495ZZM6.353,3.485L17.234,13.228C18.229,14.152,19.723,14.152,20.789,13.228L31.599,3.485L6.353,3.485ZZ" class="fills"/></g></svg>