<svg width="104.346" xmlns="http://www.w3.org/2000/svg" height="85" fill="none"><g style="fill: rgb(0, 0, 0);"><path d="M52.173,58.746C51.603,58.749,51.075,58.447,50.790,57.953L18.808,2.556C18.525,2.062,18.527,1.455,18.811,0.962C19.096,0.470,19.621,0.166,20.190,0.164L84.156,0.164C84.724,0.168,85.247,0.473,85.530,0.965C85.814,1.457,85.815,2.063,85.533,2.556L53.556,57.953C53.268,58.444,52.742,58.746,52.173,58.746ZZM22.950,3.355L52.173,53.964L81.390,3.355Z" class="fills"/><path d="M0.215,73.752L4.715,73.752C6.857,73.752,8.472,74.959,8.472,77.225C8.472,78.925,7.338,80.671,4.822,80.671L2.267,80.671L2.267,84.813L0.215,84.813ZM4.465,78.931C5.661,78.931,6.454,78.364,6.454,77.231C6.454,75.928,5.582,75.531,4.437,75.531L2.267,75.531L2.267,78.971Z" class="fills"/><path d="M13.713,73.735L15.606,73.735L19.686,84.813L17.499,84.813L16.688,82.456L12.467,82.456L11.628,84.813L9.599,84.813ZM16.099,80.688L14.597,76.251L14.563,76.251L13.033,80.688Z" class="fills"/><path d="M22.837,73.752L24.837,73.752L29.648,81.294L29.648,81.294L29.648,73.752L31.637,73.752L31.637,84.813L29.648,84.813L24.848,77.259L24.820,77.259L24.820,84.813L22.837,84.813Z" class="fills"/><path d="M35.445,73.752L37.513,73.752L37.513,84.813L35.445,84.813Z" class="fills"/><path d="M41.299,73.752L43.809,73.752L46.642,80.671L46.671,80.671L49.453,73.752L51.963,73.752L51.963,84.813L49.980,84.813L49.980,77.446L49.946,77.446L47.436,83.544L45.826,83.544L43.316,77.475L43.282,77.475L43.282,84.813L41.299,84.813Z" class="fills"/><path d="M58.933,73.735L60.826,73.735L64.906,84.813L62.719,84.813L61.908,82.456L57.692,82.456L56.854,84.813L54.825,84.813ZM61.319,80.688L59.817,76.251L59.783,76.251L58.265,80.688Z" class="fills"/><path d="M68.992,75.520L65.807,75.520L65.807,73.752L74.233,73.752L74.233,75.520L71.054,75.520L71.054,84.813L69.009,84.813Z" class="fills"/><path d="M77.305,73.752L79.367,73.752L79.367,84.813L77.305,84.813Z" class="fills"/><path d="M82.875,81.181L82.875,77.633C82.875,75.010,85.108,73.553,87.295,73.553C89.703,73.553,91.794,75.123,91.794,77.588L91.794,80.909C91.794,83.532,89.562,84.989,87.374,84.989C85.000,85.000,82.875,83.651,82.875,81.181ZZM89.749,81.028L89.749,77.492C89.749,76.154,88.615,75.395,87.295,75.395C86.241,75.395,84.921,75.962,84.921,77.537L84.921,81.073C84.921,82.410,86.054,83.170,87.374,83.170C88.428,83.170,89.749,82.609,89.749,81.028ZZ" class="fills"/><path d="M95.302,73.752L97.302,73.752L102.113,81.294L102.142,81.294L102.142,73.752L104.131,73.752L104.131,84.813L102.113,84.813L97.319,77.259L97.291,77.259L97.291,84.813L95.302,84.813Z" class="fills"/></g></svg>