<svg width="18" xmlns="http://www.w3.org/2000/svg" height="18" fill="none"><g style="fill: rgb(0, 0, 0);"><path d="M11.625,10.500L11.032,10.500L10.822,10.297C11.557,9.443,12.000,8.332,12.000,7.125C12.000,4.432,9.817,2.250,7.125,2.250C4.432,2.250,2.250,4.432,2.250,7.125C2.250,9.818,4.432,12.000,7.125,12.000C8.332,12.000,9.442,11.557,10.297,10.822L10.500,11.032L10.500,11.625L14.250,15.367L15.367,14.250L11.625,10.500ZZM7.125,10.500C5.257,10.500,3.750,8.992,3.750,7.125C3.750,5.257,5.257,3.750,7.125,3.750C8.992,3.750,10.500,5.257,10.500,7.125C10.500,8.992,8.992,10.500,7.125,10.500ZZ" style="pointer-events: none; display: block; width: 100%; height: 100%; fill: rgb(0, 0, 0);" class="fills"/></g></svg>