<svg width="15.019" xmlns="http://www.w3.org/2000/svg" height="15" fill="none"><g style="fill: rgb(0, 0, 0);"><path d="M14.950,4.050C14.100,8.850,9.450,12.950,8.000,13.850C6.600,14.800,5.300,13.500,4.850,12.500C4.300,11.350,2.700,5.300,2.300,4.750C1.900,4.250,0.600,5.250,0.600,5.250L0.000,4.450C0.000,4.450,2.550,1.350,4.500,0.950C6.550,0.550,6.550,4.150,7.050,6.200C7.550,8.150,7.850,9.250,8.250,9.250C8.650,9.250,9.450,8.150,10.350,6.500C11.250,4.850,10.300,3.350,8.600,4.400C9.300,0.250,15.750,-0.800,14.950,4.050ZZ" style="fill: rgb(252, 196, 56);" class="fills"/></g></svg>